<svg width="84" height="41" viewBox="0 0 84 41" fill="none" xmlns="http://www.w3.org/2000/svg">
<rect x="5.05115" y="0.0786743" width="80" height="27" rx="4" transform="rotate(10.2795 5.05115 0.0786743)" fill="white"/>
<path d="M16.573 19.4456L15.5699 19.2637L15.3285 17.7709L13.1607 17.3777L12.4297 18.6942L11.4304 18.5129L14.4939 13.3756L15.524 13.5624L16.573 19.4456ZM15.2216 16.9813L14.8554 14.6441C14.8454 14.5682 14.8419 14.4484 14.8451 14.2849L14.8298 14.2821C14.7802 14.424 14.7337 14.5347 14.6901 14.6141L13.5342 16.6753L15.2216 16.9813ZM20.0842 19.8958C19.736 20.0206 19.3467 20.0439 18.9162 19.9659C18.332 19.8599 17.8935 19.5925 17.6008 19.1636C17.3085 18.7321 17.2151 18.2255 17.3206 17.6439C17.4382 16.9956 17.7247 16.5103 18.1802 16.1879C18.6386 15.8635 19.1907 15.7598 19.8365 15.877C20.1952 15.942 20.5003 16.0622 20.7517 16.2375L20.6011 17.0677C20.3641 16.813 20.0906 16.6575 19.7805 16.6013C19.4039 16.5329 19.0719 16.6051 18.7845 16.8176C18.4977 17.0276 18.3168 17.3389 18.242 17.7514C18.1681 18.1588 18.2225 18.5009 18.4053 18.7775C18.5906 19.0546 18.8741 19.2278 19.2559 19.297C19.5762 19.3551 19.8992 19.2959 20.225 19.1194L20.0842 19.8958ZM23.0225 20.5716C22.8324 20.6272 22.5952 20.6291 22.3108 20.5775C21.5472 20.4391 21.2319 20.0034 21.3648 19.2706L21.7684 17.0451L21.1111 16.9259L21.238 16.2264L21.8952 16.3456L22.0604 15.4347L22.9982 15.3427L22.7869 16.5073L23.7286 16.6781L23.6017 17.3777L22.6601 17.2069L22.3032 19.1748C22.2609 19.4079 22.273 19.5822 22.3394 19.6974C22.4058 19.8127 22.5377 19.8882 22.735 19.924C22.8862 19.9514 23.0248 19.9316 23.1507 19.8644L23.0225 20.5716ZM25.0969 16.0727C24.9508 16.0462 24.8339 15.9761 24.746 15.8622C24.6607 15.7488 24.6313 15.6191 24.6578 15.473C24.6843 15.327 24.7576 15.2146 24.8778 15.1358C25.0005 15.0575 25.1349 15.0315 25.2809 15.058C25.4321 15.0855 25.5514 15.1574 25.6388 15.2738C25.7262 15.3902 25.7566 15.5215 25.7301 15.6675C25.7051 15.8059 25.6309 15.9155 25.5077 15.9964C25.385 16.0747 25.2481 16.1002 25.0969 16.0727ZM24.6752 20.9151L23.7835 20.7533L24.4973 16.8175L25.389 16.9793L24.6752 20.9151ZM29.9475 17.806L27.7116 21.4657L26.7469 21.2908L26.0117 17.0922L26.9803 17.2678L27.3536 20.1781C27.3836 20.3926 27.3925 20.5768 27.3804 20.7308L27.392 20.7329C27.4494 20.5474 27.5164 20.3823 27.593 20.2374L29.0097 17.6359L29.9475 17.806ZM33.4248 20.7194L30.742 20.2328C30.6863 20.5985 30.7468 20.8993 30.9237 21.1352C31.1032 21.3715 31.38 21.5236 31.7541 21.5915C32.1743 21.6677 32.5827 21.6121 32.9793 21.4246L32.8489 22.1434C32.4493 22.3038 31.9548 22.3306 31.3655 22.2237C30.7864 22.1187 30.3639 21.8581 30.0979 21.442C29.835 21.0238 29.7623 20.4905 29.8799 19.8422C29.991 19.2298 30.262 18.7642 30.693 18.4454C31.127 18.1245 31.6131 18.0128 32.1512 18.1104C32.6893 18.208 33.0743 18.4564 33.3062 18.8558C33.5382 19.2552 33.5984 19.7623 33.4868 20.3773L33.4248 20.7194ZM32.6782 19.9329C32.7337 19.6121 32.7032 19.3499 32.5866 19.1461C32.4705 18.9398 32.2818 18.8129 32.0205 18.7655C31.7642 18.7191 31.5295 18.7731 31.3162 18.9276C31.1054 19.0826 30.9522 19.3076 30.8563 19.6025L32.6782 19.9329ZM37.0246 23.1548L36.129 22.9923L37.1858 17.1655L38.0813 17.3279L37.0246 23.1548ZM41.8345 22.2446L39.1517 21.758C39.096 22.1237 39.1565 22.4245 39.3334 22.6604C39.5129 22.8967 39.7897 23.0488 40.1638 23.1167C40.584 23.1929 40.9924 23.1373 41.389 22.9498L41.2586 23.6686C40.859 23.829 40.3645 23.8558 39.7752 23.7489C39.1961 23.6439 38.7736 23.3833 38.5076 22.9672C38.2447 22.549 38.172 22.0157 38.2896 21.3674C38.4007 20.755 38.6717 20.2894 39.1027 19.9706C39.5367 19.6497 40.0228 19.538 40.5609 19.6356C41.099 19.7332 41.484 19.9816 41.7159 20.381C41.9479 20.7804 42.0081 21.2875 41.8965 21.9025L41.8345 22.2446ZM41.0879 21.4581C41.1434 21.1373 41.1129 20.8751 40.9963 20.6713C40.8802 20.465 40.6915 20.3381 40.4301 20.2907C40.1739 20.2443 39.9391 20.2983 39.7259 20.4528C39.5151 20.6078 39.3618 20.8328 39.266 21.1277L41.0879 21.4581ZM45.392 24.6723L44.5272 24.5154L44.6387 23.9005L44.6233 23.8977C44.2662 24.3199 43.825 24.4834 43.2997 24.3881C42.9128 24.3179 42.6282 24.1578 42.446 23.9077C42.2663 23.6581 42.2078 23.3603 42.2705 23.0144C42.4053 22.2713 42.9117 21.9159 43.7899 21.9481L44.9883 21.9948C45.0901 21.4336 44.8745 21.1047 44.3415 21.008C43.8726 20.923 43.4205 21.0077 42.9853 21.2623L43.1268 20.4821C43.5865 20.3113 44.088 20.2753 44.6312 20.3738C45.6254 20.5541 46.0337 21.1337 45.8562 22.1125L45.392 24.6723ZM44.8816 22.5828L44.0344 22.5483C43.7721 22.5351 43.5672 22.5628 43.4198 22.6313C43.2754 22.6978 43.1826 22.845 43.1412 23.0731C43.111 23.2396 43.1451 23.3874 43.2434 23.5164C43.3448 23.6433 43.4954 23.7249 43.6953 23.7611C43.9669 23.8104 44.2083 23.7562 44.4195 23.5987C44.6337 23.4391 44.7671 23.2145 44.8196 22.9249L44.8816 22.5828ZM50.0619 25.5192L49.1702 25.3575L49.2915 24.6887L49.2761 24.6859C48.8971 25.1412 48.4091 25.3147 47.812 25.2065C47.3278 25.1186 46.9714 24.8727 46.7429 24.4687C46.5175 24.0626 46.4599 23.5559 46.57 22.9486C46.6881 22.2977 46.9428 21.8054 47.3342 21.4714C47.7281 21.1379 48.1929 21.0197 48.7284 21.1169C49.2588 21.2131 49.6059 21.4957 49.7696 21.9647L49.785 21.9675L50.2269 19.5307L51.1186 19.6924L50.0619 25.5192ZM49.5079 23.5608L49.6013 23.0458C49.652 22.7665 49.604 22.513 49.4574 22.2852C49.3108 22.0575 49.0966 21.9181 48.8147 21.8669C48.4816 21.8065 48.1964 21.8832 47.9592 22.0969C47.7245 22.311 47.5672 22.6385 47.4872 23.0792C47.4147 23.4789 47.4483 23.8119 47.5879 24.0781C47.7306 24.3421 47.957 24.5023 48.267 24.5585C48.5719 24.6138 48.8394 24.5472 49.0695 24.3587C49.3 24.1676 49.4461 23.9016 49.5079 23.5608ZM51.0028 25.5628L51.1527 24.7365C51.4398 25.0506 51.7845 25.2441 52.1867 25.317C52.7248 25.4146 53.0227 25.3046 53.0803 24.9868C53.0966 24.8971 53.0872 24.8174 53.0523 24.7475C53.0178 24.6751 52.9652 24.6073 52.8946 24.5442C52.8266 24.4816 52.7422 24.4213 52.6416 24.3634C52.5435 24.3059 52.4335 24.2409 52.3117 24.1686C52.1619 24.0752 52.0281 23.9808 51.9105 23.8854C51.7953 23.7904 51.7024 23.6902 51.6315 23.5847C51.5637 23.4771 51.5184 23.3617 51.4958 23.2385C51.4731 23.1153 51.4758 22.9768 51.5036 22.8231C51.538 22.6335 51.6131 22.475 51.7288 22.3478C51.845 22.218 51.9875 22.1182 52.1563 22.0482C52.3256 21.9757 52.5108 21.9325 52.7118 21.9187C52.9132 21.9023 53.1165 21.9127 53.3215 21.9499C53.6853 22.0158 54.0007 22.13 54.2678 22.2922L54.1262 23.0724C53.8839 22.8326 53.5834 22.6802 53.2246 22.6151C53.1119 22.5947 53.0073 22.5876 52.9109 22.594C52.817 22.6008 52.7343 22.6188 52.6628 22.6482C52.5913 22.6776 52.5323 22.7185 52.4857 22.7709C52.4397 22.8208 52.4103 22.8803 52.3978 22.9495C52.3824 23.0341 52.3874 23.1091 52.4126 23.1745C52.4377 23.2399 52.4807 23.302 52.5416 23.3607C52.6054 23.4172 52.6825 23.4736 52.7729 23.5297C52.8664 23.5837 52.9732 23.6441 53.0934 23.7109C53.25 23.8107 53.3884 23.9086 53.5086 24.0045C53.6314 24.1009 53.7318 24.2038 53.8099 24.3132C53.8884 24.4201 53.9424 24.5384 53.9718 24.6681C54.0017 24.7953 54.0018 24.9409 53.972 25.1049C53.9358 25.3047 53.858 25.4706 53.7388 25.6025C53.6196 25.7344 53.4743 25.8351 53.3029 25.9046C53.1315 25.974 52.9404 26.0135 52.7297 26.0229C52.521 26.0353 52.3052 26.0213 52.0822 25.9809C51.6517 25.9028 51.2919 25.7635 51.0028 25.5628Z" fill="black"/>
<path d="M72.0997 25.4508C72.0291 25.84 71.8447 26.1995 71.5698 26.4839C71.2948 26.7683 70.9418 26.9648 70.5552 27.0486C70.1686 27.1323 69.7658 27.0995 69.3978 26.9543C69.0299 26.8092 68.7132 26.5582 68.4879 26.233C68.2626 25.9079 68.1388 25.5233 68.1321 25.1278C68.1254 24.7323 68.2361 24.3436 68.4503 24.0111C68.6645 23.6785 68.9724 23.4169 69.3353 23.2594C69.6981 23.1018 70.0995 23.0554 70.4887 23.126C71.0106 23.2206 71.4736 23.5188 71.7757 23.9547C72.0778 24.3907 72.1944 24.9289 72.0997 25.4508Z" fill="#1AD079"/>
</svg>
