<svg width="174" height="121" viewBox="0 0 174 121" fill="none" xmlns="http://www.w3.org/2000/svg">
<g clip-path="url(#clip0_102_2)">
<rect x="9.8075" y="34.3826" width="130" height="30" rx="4" transform="rotate(-15 9.8075 34.3826)" fill="white"/>
<path d="M84.748 29.3528L123.385 19" stroke="#D9D9D9" stroke-width="3"/>
<path d="M31.0764 44.2128L69.7135 33.86" stroke="black" stroke-width="3"/>
</g>
<g filter="url(#filter0_d_102_2)">
<g clip-path="url(#clip1_102_2)">
<rect x="22" y="77.2244" width="130" height="30" rx="4" transform="rotate(-15 22 77.2244)" fill="white"/>
<path d="M110.884 68.9372L135.032 62.4667" stroke="black" stroke-width="3"/>
<path d="M43.269 87.0545L101.225 71.5254" stroke="#D9D9D9" stroke-width="3"/>
</g>
</g>
<path d="M21.5916 47.0056C21.6586 46.7378 21.4958 46.4663 21.228 46.3992L16.8627 45.3064C16.5948 45.2393 16.3233 45.4021 16.2562 45.67C16.1891 45.9379 16.3519 46.2094 16.6198 46.2764L20.5001 47.2478L19.5287 51.1281C19.4616 51.396 19.6244 51.6675 19.8923 51.7345C20.1602 51.8016 20.4317 51.6388 20.4988 51.3709L21.5916 47.0056ZM20.8035 89.0026C20.5196 88.8834 20.2322 88.7531 19.9423 88.6121L19.5048 89.5113C19.8106 89.6601 20.1148 89.798 20.4164 89.9246L20.8035 89.0026ZM18.2715 87.6961C17.7406 87.3727 17.2072 87.0171 16.6762 86.6315L16.0886 87.4406C16.6407 87.8416 17.1965 88.2122 17.7512 88.5501L18.2715 87.6961ZM15.1683 85.4485C14.6867 85.0417 14.2113 84.6112 13.7457 84.1586L13.0487 84.8757C13.5309 85.3444 14.0236 85.7906 14.523 86.2124L15.1683 85.4485ZM12.4138 82.7716C11.9901 82.2989 11.5789 81.8076 11.1836 81.2994L10.3943 81.9134C10.8042 82.4403 11.2302 82.9494 11.6691 83.439L12.4138 82.7716ZM10.0603 79.7436C9.7061 79.2134 9.37028 78.6685 9.05584 78.1102L8.18454 78.601C8.51182 79.1821 8.86097 79.7486 9.22877 80.2991L10.0603 79.7436ZM8.18402 76.4063C7.91746 75.8281 7.67488 75.2382 7.45915 74.6382L6.51812 74.9765C6.744 75.6048 6.99765 76.2214 7.27587 76.8249L8.18402 76.4063ZM6.89704 72.8149C6.73906 72.2012 6.61028 71.5787 6.51347 70.9487L5.52507 71.1006C5.62709 71.7644 5.76264 72.4194 5.9286 73.0642L6.89704 72.8149ZM6.32267 69.058C6.29261 68.4307 6.29554 67.7974 6.33405 67.1592L5.33587 67.099C5.29514 67.7739 5.29207 68.4433 5.32381 69.1059L6.32267 69.058ZM6.55188 65.2723C6.65712 64.6574 6.79691 64.0387 6.97359 63.4173L6.01171 63.1438C5.82521 63.7998 5.67749 64.4534 5.56621 65.1036L6.55188 65.2723ZM7.58899 61.6145C7.81882 61.039 8.08188 60.4617 8.38006 59.8833L7.49124 59.4251C7.17859 60.0315 6.90219 60.6379 6.6603 61.2437L7.58899 61.6145ZM9.32996 58.2276C9.66222 57.7027 10.0248 57.1775 10.4193 56.6526L9.61985 56.0518C9.20977 56.5976 8.83191 57.1448 8.48501 57.6928L9.32996 58.2276ZM11.6298 55.1591C12.0384 54.6899 12.4737 54.2213 12.9366 53.7539L12.2261 53.0502C11.7486 53.5323 11.2987 54.0165 10.8757 54.5024L11.6298 55.1591ZM14.3249 52.4316C14.789 52.0138 15.2763 51.5972 15.7874 51.1822L15.1572 50.4058C14.6332 50.8312 14.1329 51.2589 13.6558 51.6885L14.3249 52.4316ZM17.3179 49.9981C17.8284 49.6212 18.3594 49.2461 18.9117 48.8728L18.3517 48.0443C17.7883 48.4251 17.2459 48.8083 16.724 49.1936L17.3179 49.9981ZM20.5185 47.8298C20.7955 47.6571 21.0771 47.4848 21.3636 47.3131L20.8494 46.4554C20.558 46.6301 20.2713 46.8055 19.9893 46.9813L20.5185 47.8298Z" fill="#1AD079"/>
<path d="M142.884 57.4842C142.817 57.7521 142.98 58.0236 143.248 58.0907L147.613 59.1835C147.881 59.2505 148.152 59.0877 148.219 58.8199C148.286 58.552 148.124 58.2805 147.856 58.2134L143.976 57.242L144.947 53.3618C145.014 53.0939 144.851 52.8224 144.583 52.7553C144.315 52.6882 144.044 52.851 143.977 53.1189L142.884 57.4842ZM142.14 14.9482C142.463 14.9601 142.789 14.9873 143.115 15.0294L143.243 14.0376C142.887 13.9917 142.532 13.9619 142.176 13.9489L142.14 14.9482ZM145.036 15.4451C145.656 15.6326 146.274 15.8707 146.885 16.156L147.308 15.2499C146.656 14.9455 145.994 14.69 145.325 14.4879L145.036 15.4451ZM148.627 17.1095C149.181 17.4581 149.724 17.8449 150.253 18.2671L150.877 17.4854C150.32 17.0408 149.746 16.6323 149.16 16.2633L148.627 17.1095ZM151.751 19.5944C152.221 20.0561 152.676 20.5466 153.11 21.0636L153.876 20.42C153.421 19.8789 152.945 19.3649 152.451 18.8805L151.751 19.5944ZM154.329 22.6574C154.707 23.2025 155.064 23.7695 155.397 24.3562L156.267 23.8627C155.919 23.2496 155.546 22.657 155.15 22.0872L154.329 22.6574ZM156.307 26.1427C156.582 26.7479 156.831 27.3693 157.052 28.0049L157.996 27.6765C157.765 27.0117 157.505 26.362 157.218 25.7296L156.307 26.1427ZM157.622 29.9278C157.781 30.5724 157.911 31.2285 158.01 31.8941L158.999 31.7478C158.896 31.0504 158.76 30.3632 158.593 29.6885L157.622 29.9278ZM158.207 33.8855C158.24 34.5458 158.241 35.2134 158.209 35.8864L159.208 35.9342C159.242 35.2281 159.24 34.5278 159.205 33.8353L158.207 33.8855ZM158.015 37.8785C157.919 38.5303 157.79 39.1857 157.627 39.8432L158.597 40.0845C158.769 39.3952 158.904 38.7079 159.005 38.0241L158.015 37.8785ZM157.051 41.7632C156.833 42.3827 156.582 43.0031 156.297 43.6229L157.206 44.0401C157.503 43.3927 157.766 42.7441 157.994 42.0956L157.051 41.7632ZM155.38 45.4096C155.056 45.9794 154.702 46.5479 154.316 47.1141L155.142 47.6774C155.543 47.0892 155.912 46.4977 156.25 45.904L155.38 45.4096ZM153.121 48.7311C152.712 49.2433 152.276 49.7528 151.811 50.2588L152.548 50.9352C153.028 50.4125 153.479 49.8855 153.902 49.3549L153.121 48.7311ZM150.401 51.6985C149.926 52.154 149.427 52.6059 148.902 53.0538L149.551 53.8144C150.09 53.3543 150.604 52.8894 151.093 52.4202L150.401 51.6985ZM147.322 54.3297C146.796 54.7328 146.247 55.132 145.676 55.5267L146.245 56.3493C146.829 55.9456 147.391 55.5369 147.93 55.1238L147.322 54.3297ZM143.995 56.635C143.706 56.8167 143.411 56.9973 143.112 57.1768L143.626 58.0345C143.932 57.8514 144.232 57.6671 144.527 57.4816L143.995 56.635Z" fill="#1AD079"/>
<defs>
<filter id="filter0_d_102_2" x="15" y="32.5779" width="159.335" height="88.6243" filterUnits="userSpaceOnUse" color-interpolation-filters="sRGB">
<feFlood flood-opacity="0" result="BackgroundImageFix"/>
<feColorMatrix in="SourceAlpha" type="matrix" values="0 0 0 0 0 0 0 0 0 0 0 0 0 0 0 0 0 0 127 0" result="hardAlpha"/>
<feOffset dx="6" dy="2"/>
<feGaussianBlur stdDeviation="6.5"/>
<feComposite in2="hardAlpha" operator="out"/>
<feColorMatrix type="matrix" values="0 0 0 0 0 0 0 0 0 0 0 0 0 0 0 0 0 0 0.06 0"/>
<feBlend mode="normal" in2="BackgroundImageFix" result="effect1_dropShadow_102_2"/>
<feBlend mode="normal" in="SourceGraphic" in2="effect1_dropShadow_102_2" result="shape"/>
</filter>
<clipPath id="clip0_102_2">
<rect x="9.8075" y="34.3826" width="130" height="30" rx="4" transform="rotate(-15 9.8075 34.3826)" fill="white"/>
</clipPath>
<clipPath id="clip1_102_2">
<rect x="22" y="77.2244" width="130" height="30" rx="4" transform="rotate(-15 22 77.2244)" fill="white"/>
</clipPath>
</defs>
</svg>
